# xmcd
# Copyright (C) 1995-1998 Ti Kan
#
# Track frame offsets:
#       150
#       15525
#       38467
#       54292
#       67425
#       77395
#       94210
#       111315
#       130350
#       148042
#       163875
#       182840
#       202257
#       217455
#       233012
#       250705
#       268040
#       289947
#       308197
#       323552
#
# Disc length: 4599 seconds
#
# Revision: 0
# Processed by: cddbd v1.5.2PL0 Copyright (c) Steve Scherf et al.
# Submitted via: CD-Transfer v1.0
#
DISCID=3011f514
DTITLE=Prince - Prince
DYEAR=1900
DGENRE=
TTITLE0=Hello
TTITLE1=200 Balloons
TTITLE2=Escape
TTITLE3=Gotta Stop (Messin' About)
TTITLE4=Horny Toad
TTITLE5=Feel U Up
TTITLE6=Girl
TTITLE7=I Love U In Me
TTITLE8=Erotic City
TTITLE9=Shockadelica
TTITLE10=Irresistible Bitch
TTITLE11=Scarlet Pussy
TTITLE12=La, Lal, La, He, He, Hee
TTITLE13=She's Always In My Hair
TTITLE14=17 Days
TTITLE15=Howe Come U Don't Call Me Anymore
TTITLE16=Another Lonely Christmas
TTITLE17=God
TTITLE18=4 The Tears In Your Eyes
TTITLE19=Power Fantastic
EXTD=
EXTT0=
EXTT1=
EXTT2=
EXTT3=
EXTT4=
EXTT5=
EXTT6=
EXTT7=
EXTT8=
EXTT9=
EXTT10=
EXTT11=
EXTT12=
EXTT13=
EXTT14=
EXTT15=
EXTT16=
EXTT17=
EXTT18=
EXTT19=
PLAYORDER=
